<?xml version="1.0" encoding="UTF-8" standalone="no"?>
<!-- Created with Inkscape (http://www.inkscape.org/) -->

<svg
   xmlns:dc="http://purl.org/dc/elements/1.1/"
   xmlns:cc="http://creativecommons.org/ns#"
   xmlns:rdf="http://www.w3.org/1999/02/22-rdf-syntax-ns#"
   xmlns:svg="http://www.w3.org/2000/svg"
   xmlns="http://www.w3.org/2000/svg"
   xmlns:sodipodi="http://sodipodi.sourceforge.net/DTD/sodipodi-0.dtd"
   xmlns:inkscape="http://www.inkscape.org/namespaces/inkscape"
   width="579.0824"
   height="206.06937"
   id="svg3769"
   version="1.1"
   inkscape:version="0.48.5 r10040">
  <defs
     id="defs3771">
    <clipPath
       clipPathUnits="userSpaceOnUse"
       id="clipPath24">
      <path
         inkscape:connector-curvature="0"
         d="m 0,595.28 841.89,0 L 841.89,0 0,0 0,595.28 z"
         id="path26" />
    </clipPath>
  </defs>
  <sodipodi:namedview
     id="base"
     pagecolor="#ffffff"
     bordercolor="#666666"
     borderopacity="1.0"
     inkscape:pageopacity="0.0"
     inkscape:pageshadow="2"
     inkscape:zoom="0.35"
     inkscape:cx="289.54118"
     inkscape:cy="103.03468"
     inkscape:document-units="px"
     inkscape:current-layer="layer1"
     showgrid="false"
     fit-margin-top="15"
     fit-margin-left="15"
     fit-margin-right="15"
     fit-margin-bottom="15"
     inkscape:window-width="472"
     inkscape:window-height="415"
     inkscape:window-x="65"
     inkscape:window-y="1157"
     inkscape:window-maximized="0" />
  <metadata
     id="metadata3774">
    <rdf:RDF>
      <cc:Work
         rdf:about="">
        <dc:format>image/svg+xml</dc:format>
        <dc:type
           rdf:resource="http://purl.org/dc/dcmitype/StillImage" />
        <dc:title></dc:title>
      </cc:Work>
    </rdf:RDF>
  </metadata>
  <g
     inkscape:label="Layer 1"
     inkscape:groupmode="layer"
     id="layer1"
     transform="translate(-85.458819,-429.3275)">
    <text
       style="font-size:15px"
       y="578.07574"
       x="260.4162"
       id="text12">
      <tspan
         style="font-size:125px;font-variant:normal;font-weight:normal;font-stretch:normal;writing-mode:lr-tb;fill:#ed1d24;fill-opacity:1;fill-rule:nonzero;stroke:none;font-family:Myriad Pro;-inkscape-font-specification:MyriadPro-Regular"
         x="260.4162 329.7912 351.79117 456.91617 526.2912 588.9162"
         y="578.07574"
         sodipodi:role="line"
         id="tspan14">n When</tspan>
    </text>
    <text
       style="font-size:15px"
       y="487.66187"
       x="250.88132"
       id="text16">
      <tspan
         style="font-size:45px;font-variant:normal;font-weight:normal;font-stretch:normal;writing-mode:lr-tb;fill:#717577;fill-opacity:1;fill-rule:nonzero;stroke:none;font-family:Myriad Pro;-inkscape-font-specification:MyriadPro-Regular"
         x="250.88132 288.72629 313.70129 335.2113 351.0513 357.12631"
         y="487.66187"
         sodipodi:role="line"
         id="tspan18">What’s</tspan>
    </text>
    <g
       transform="matrix(1.25,0,0,-1.25,-92.904056,1030.616)"
       id="g20">
      <g
         id="g22"
         clip-path="url(#clipPath24)">
        <g
           id="g28"
           transform="translate(275.0283,402.0308)">
          <path
             inkscape:connector-curvature="0"
             d="m 0,0 c 0,-33.965 -25.708,-61.5 -57.419,-61.5 -31.711,0 -57.419,27.535 -57.419,61.5 0,33.965 25.708,61.5 57.419,61.5 C -25.708,61.5 0,33.965 0,0 z"
             style="fill:none;stroke:#ed1d24;stroke-width:11;stroke-linecap:butt;stroke-linejoin:miter;stroke-miterlimit:10;stroke-opacity:1;stroke-dasharray:none"
             id="path30" />
        </g>
        <g
           id="g32"
           transform="translate(194.0244,383.6138)">
          <path
             inkscape:connector-curvature="0"
             d="m 0,0 c 0,-0.461 -0.374,-0.834 -0.833,-0.834 -0.461,0 -0.834,0.373 -0.834,0.834 0,0.46 0.373,0.833 0.834,0.833 C -0.374,0.833 0,0.46 0,0"
             style="fill:#231f20;fill-opacity:1;fill-rule:nonzero;stroke:none"
             id="path34" />
        </g>
        <g
           id="g36"
           transform="translate(253.0244,403.9458)">
          <path
             inkscape:connector-curvature="0"
             d="m 0,0 c 0,-1.012 -0.821,-1.833 -1.833,-1.833 -1.014,0 -1.834,0.821 -1.834,1.833 0,1.014 0.82,1.834 1.834,1.834 C -0.821,1.834 0,1.014 0,0"
             style="fill:#231f20;fill-opacity:1;fill-rule:nonzero;stroke:none"
             id="path38" />
        </g>
        <g
           id="g40"
           transform="translate(232.6909,422.6128)">
          <path
             inkscape:connector-curvature="0"
             d="m 0,0 c 0,-0.644 -0.522,-1.167 -1.167,-1.167 -0.644,0 -1.166,0.523 -1.166,1.167 0,0.645 0.522,1.167 1.166,1.167 C -0.522,1.167 0,0.645 0,0"
             style="fill:#231f20;fill-opacity:1;fill-rule:nonzero;stroke:none"
             id="path42" />
        </g>
        <g
           id="g44"
           transform="translate(195.6909,435.7798)">
          <path
             inkscape:connector-curvature="0"
             d="m 0,0 c 0,-0.92 -0.746,-1.666 -1.667,-1.666 -0.92,0 -1.666,0.746 -1.666,1.666 0,0.921 0.746,1.667 1.666,1.667 C -0.746,1.667 0,0.921 0,0"
             style="fill:#231f20;fill-opacity:1;fill-rule:nonzero;stroke:none"
             id="path46" />
        </g>
        <g
           id="g48"
           transform="translate(220.3574,401.4468)">
          <path
             inkscape:connector-curvature="0"
             d="m 0,0 c 0,-2.394 -1.94,-4.333 -4.333,-4.333 -2.394,0 -4.334,1.939 -4.334,4.333 0,2.394 1.94,4.333 4.334,4.333 C -1.94,4.333 0,2.394 0,0"
             style="fill:#231f20;fill-opacity:1;fill-rule:nonzero;stroke:none"
             id="path50" />
        </g>
        <g
           id="g52"
           transform="translate(243.0244,373.1138)">
          <path
             inkscape:connector-curvature="0"
             d="m 0,0 c 0,-1.289 -1.045,-2.334 -2.333,-2.334 -1.289,0 -2.334,1.045 -2.334,2.334 0,1.288 1.045,2.333 2.334,2.333 C -1.045,2.333 0,1.288 0,0"
             style="fill:#231f20;fill-opacity:1;fill-rule:nonzero;stroke:none"
             id="path54" />
        </g>
        <g
           id="g56"
           transform="translate(197.7402,429.6108)">
          <path
             inkscape:connector-curvature="0"
             d="M 0,0 1.485,0.977 -0.05,3.311 -1.535,2.334 0,0 z"
             style="fill:#231f20;fill-opacity:1;fill-rule:nonzero;stroke:none"
             id="path58" />
        </g>
        <g
           id="g60"
           transform="translate(200.0259,426.1353)">
          <path
             inkscape:connector-curvature="0"
             d="M 0,0 1.485,0.977 -0.05,3.311 -1.535,2.334 0,0 z"
             style="fill:#231f20;fill-opacity:1;fill-rule:nonzero;stroke:none"
             id="path62" />
        </g>
        <g
           id="g64"
           transform="translate(202.3115,422.6587)">
          <path
             inkscape:connector-curvature="0"
             d="M 0,0 1.485,0.977 -0.05,3.311 -1.535,2.335 0,0 z"
             style="fill:#231f20;fill-opacity:1;fill-rule:nonzero;stroke:none"
             id="path66" />
        </g>
        <g
           id="g68"
           transform="translate(204.5972,419.1831)">
          <path
             inkscape:connector-curvature="0"
             d="M 0,0 1.485,0.977 -0.049,3.31 -1.535,2.333 0,0 z"
             style="fill:#231f20;fill-opacity:1;fill-rule:nonzero;stroke:none"
             id="path70" />
        </g>
        <g
           id="g72"
           transform="translate(206.8828,415.7065)">
          <path
             inkscape:connector-curvature="0"
             d="M 0,0 1.485,0.977 -0.05,3.311 -1.535,2.334 0,0 z"
             style="fill:#231f20;fill-opacity:1;fill-rule:nonzero;stroke:none"
             id="path74" />
        </g>
        <g
           id="g76"
           transform="translate(209.1689,412.23)">
          <path
             inkscape:connector-curvature="0"
             d="M 0,0 1.485,0.977 -0.05,3.311 -1.535,2.334 0,0 z"
             style="fill:#231f20;fill-opacity:1;fill-rule:nonzero;stroke:none"
             id="path78" />
        </g>
        <g
           id="g80"
           transform="translate(211.4541,408.7544)">
          <path
             inkscape:connector-curvature="0"
             d="M 0,0 1.485,0.977 -0.049,3.311 -1.535,2.334 0,0 z"
             style="fill:#231f20;fill-opacity:1;fill-rule:nonzero;stroke:none"
             id="path82" />
        </g>
        <g
           id="g84"
           transform="translate(197.6846,386.2407)">
          <path
             inkscape:connector-curvature="0"
             d="M 0,0 -1.009,1.463 -2.484,0.444 -1.475,-1.019 0,0 z"
             style="fill:#231f20;fill-opacity:1;fill-rule:nonzero;stroke:none"
             id="path86" />
        </g>
        <g
           id="g88"
           transform="translate(199.8818,387.7563)">
          <path
             inkscape:connector-curvature="0"
             d="M 0,0 -1.01,1.463 -2.485,0.445 -1.475,-1.018 0,0 z"
             style="fill:#231f20;fill-opacity:1;fill-rule:nonzero;stroke:none"
             id="path90" />
        </g>
        <g
           id="g92"
           transform="translate(202.0786,389.272)">
          <path
             inkscape:connector-curvature="0"
             d="M 0,0 -1.009,1.463 -2.485,0.445 -1.475,-1.018 0,0 z"
             style="fill:#231f20;fill-opacity:1;fill-rule:nonzero;stroke:none"
             id="path94" />
        </g>
        <g
           id="g96"
           transform="translate(204.2759,390.7886)">
          <path
             inkscape:connector-curvature="0"
             d="M 0,0 -1.01,1.463 -2.484,0.445 -1.475,-1.018 0,0 z"
             style="fill:#231f20;fill-opacity:1;fill-rule:nonzero;stroke:none"
             id="path98" />
        </g>
        <g
           id="g100"
           transform="translate(206.4727,392.3042)">
          <path
             inkscape:connector-curvature="0"
             d="M 0,0 -1.009,1.463 -2.484,0.445 -1.475,-1.018 0,0 z"
             style="fill:#231f20;fill-opacity:1;fill-rule:nonzero;stroke:none"
             id="path102" />
        </g>
        <g
           id="g104"
           transform="translate(208.6699,393.8208)">
          <path
             inkscape:connector-curvature="0"
             d="M 0,0 -1.009,1.463 -2.484,0.445 -1.475,-1.018 0,0 z"
             style="fill:#231f20;fill-opacity:1;fill-rule:nonzero;stroke:none"
             id="path106" />
        </g>
        <g
           id="g108"
           transform="translate(210.8667,395.3364)">
          <path
             inkscape:connector-curvature="0"
             d="M 0,0 -1.009,1.463 -2.484,0.445 -1.475,-1.018 0,0 z"
             style="fill:#231f20;fill-opacity:1;fill-rule:nonzero;stroke:none"
             id="path110" />
        </g>
        <g
           id="g112"
           transform="translate(199.6592,379.3726)">
          <path
             inkscape:connector-curvature="0"
             d="M 0,0 0.344,1.744 -3.499,2.503 -3.843,0.76 0,0 z"
             style="fill:#231f20;fill-opacity:1;fill-rule:nonzero;stroke:none"
             id="path114" />
        </g>
        <g
           id="g116"
           transform="translate(205.3823,378.2427)">
          <path
             inkscape:connector-curvature="0"
             d="M 0,0 0.344,1.743 -3.499,2.503 -3.843,0.759 0,0 z"
             style="fill:#231f20;fill-opacity:1;fill-rule:nonzero;stroke:none"
             id="path118" />
        </g>
        <g
           id="g120"
           transform="translate(211.105,377.1118)">
          <path
             inkscape:connector-curvature="0"
             d="M 0,0 0.344,1.744 -3.499,2.503 -3.843,0.759 0,0 z"
             style="fill:#231f20;fill-opacity:1;fill-rule:nonzero;stroke:none"
             id="path122" />
        </g>
        <g
           id="g124"
           transform="translate(216.8286,375.981)">
          <path
             inkscape:connector-curvature="0"
             d="M 0,0 0.344,1.744 -3.498,2.503 -3.842,0.76 0,0 z"
             style="fill:#231f20;fill-opacity:1;fill-rule:nonzero;stroke:none"
             id="path126" />
        </g>
        <g
           id="g128"
           transform="translate(222.5518,374.8511)">
          <path
             inkscape:connector-curvature="0"
             d="M 0,0 0.344,1.743 -3.499,2.502 -3.843,0.759 0,0 z"
             style="fill:#231f20;fill-opacity:1;fill-rule:nonzero;stroke:none"
             id="path130" />
        </g>
        <g
           id="g132"
           transform="translate(228.2754,373.7202)">
          <path
             inkscape:connector-curvature="0"
             d="M 0,0 0.345,1.743 -3.498,2.503 -3.842,0.759 0,0 z"
             style="fill:#231f20;fill-opacity:1;fill-rule:nonzero;stroke:none"
             id="path134" />
        </g>
        <g
           id="g136"
           transform="translate(233.9971,372.5894)">
          <path
             inkscape:connector-curvature="0"
             d="M 0,0 0.345,1.744 -3.498,2.503 -3.842,0.759 0,0 z"
             style="fill:#231f20;fill-opacity:1;fill-rule:nonzero;stroke:none"
             id="path138" />
        </g>
        <g
           id="g140"
           transform="translate(240.2095,383.1187)">
          <path
             inkscape:connector-curvature="0"
             d="M 0,0 -1.743,-0.352 -0.969,-4.191 0.773,-3.84 0,0 z"
             style="fill:#231f20;fill-opacity:1;fill-rule:nonzero;stroke:none"
             id="path142" />
        </g>
        <g
           id="g144"
           transform="translate(239.0571,388.8374)">
          <path
             inkscape:connector-curvature="0"
             d="M 0,0 -1.742,-0.352 -0.969,-4.191 0.774,-3.84 0,0 z"
             style="fill:#231f20;fill-opacity:1;fill-rule:nonzero;stroke:none"
             id="path146" />
        </g>
        <g
           id="g148"
           transform="translate(237.9053,394.5552)">
          <path
             inkscape:connector-curvature="0"
             d="M 0,0 -1.742,-0.351 -0.969,-4.19 0.773,-3.84 0,0 z"
             style="fill:#231f20;fill-opacity:1;fill-rule:nonzero;stroke:none"
             id="path150" />
        </g>
        <g
           id="g152"
           transform="translate(236.7529,400.2739)">
          <path
             inkscape:connector-curvature="0"
             d="m 0,0 -1.742,-0.351 0.773,-3.838 1.742,0.35 L 0,0 z"
             style="fill:#231f20;fill-opacity:1;fill-rule:nonzero;stroke:none"
             id="path154" />
        </g>
        <g
           id="g156"
           transform="translate(235.6011,405.9927)">
          <path
             inkscape:connector-curvature="0"
             d="M 0,0 -1.743,-0.351 -0.969,-4.19 0.773,-3.84 0,0 z"
             style="fill:#231f20;fill-opacity:1;fill-rule:nonzero;stroke:none"
             id="path158" />
        </g>
        <g
           id="g160"
           transform="translate(234.4487,411.7124)">
          <path
             inkscape:connector-curvature="0"
             d="M 0,0 -1.742,-0.351 -0.969,-4.19 0.773,-3.84 0,0 z"
             style="fill:#231f20;fill-opacity:1;fill-rule:nonzero;stroke:none"
             id="path162" />
        </g>
        <g
           id="g164"
           transform="translate(233.2969,417.4302)">
          <path
             inkscape:connector-curvature="0"
             d="M 0,0 -1.742,-0.352 -0.969,-4.19 0.773,-3.84 0,0 z"
             style="fill:#231f20;fill-opacity:1;fill-rule:nonzero;stroke:none"
             id="path166" />
        </g>
        <g
           id="g168"
           transform="translate(226.5239,442.7798)">
          <path
             inkscape:connector-curvature="0"
             d="m 0,0 c 0,-0.645 -0.522,-1.166 -1.167,-1.166 -0.644,0 -1.166,0.521 -1.166,1.166 0,0.645 0.522,1.166 1.166,1.166 C -0.522,1.166 0,0.645 0,0"
             style="fill:#231f20;fill-opacity:1;fill-rule:nonzero;stroke:none"
             id="path170" />
        </g>
        <g
           id="g172"
           transform="translate(190.3569,409.9468)">
          <path
             inkscape:connector-curvature="0"
             d="m 0,0 c 0,-1.013 -0.821,-1.833 -1.833,-1.833 -1.012,0 -1.833,0.82 -1.833,1.833 0,1.013 0.821,1.833 1.833,1.833 C -0.821,1.833 0,1.013 0,0"
             style="fill:#231f20;fill-opacity:1;fill-rule:nonzero;stroke:none"
             id="path174" />
        </g>
        <g
           id="g176"
           transform="translate(219.3662,443.1626)">
          <path
             inkscape:connector-curvature="0"
             d="M 0,0 0.356,-1.741 2.858,-1.229 2.501,0.512 0,0 z"
             style="fill:#231f20;fill-opacity:1;fill-rule:nonzero;stroke:none"
             id="path178" />
        </g>
        <g
           id="g180"
           transform="translate(215.6401,442.4009)">
          <path
             inkscape:connector-curvature="0"
             d="M 0,0 0.356,-1.741 2.858,-1.229 2.502,0.512 0,0 z"
             style="fill:#231f20;fill-opacity:1;fill-rule:nonzero;stroke:none"
             id="path182" />
        </g>
        <g
           id="g184"
           transform="translate(211.9141,441.6392)">
          <path
             inkscape:connector-curvature="0"
             d="M 0,0 0.356,-1.741 2.858,-1.229 2.502,0.512 0,0 z"
             style="fill:#231f20;fill-opacity:1;fill-rule:nonzero;stroke:none"
             id="path186" />
        </g>
        <g
           id="g188"
           transform="translate(208.188,440.8774)">
          <path
             inkscape:connector-curvature="0"
             d="M 0,0 0.356,-1.741 2.857,-1.23 2.501,0.512 0,0 z"
             style="fill:#231f20;fill-opacity:1;fill-rule:nonzero;stroke:none"
             id="path190" />
        </g>
        <g
           id="g192"
           transform="translate(204.4619,440.1157)">
          <path
             inkscape:connector-curvature="0"
             d="M 0,0 0.356,-1.741 2.858,-1.23 2.502,0.512 0,0 z"
             style="fill:#231f20;fill-opacity:1;fill-rule:nonzero;stroke:none"
             id="path194" />
        </g>
        <g
           id="g196"
           transform="translate(200.7354,439.353)">
          <path
             inkscape:connector-curvature="0"
             d="M 0,0 0.356,-1.741 2.858,-1.229 2.502,0.512 0,0 z"
             style="fill:#231f20;fill-opacity:1;fill-rule:nonzero;stroke:none"
             id="path198" />
        </g>
        <g
           id="g200"
           transform="translate(197.0103,438.5923)">
          <path
             inkscape:connector-curvature="0"
             d="M 0,0 0.356,-1.742 2.857,-1.23 2.501,0.511 0,0 z"
             style="fill:#231f20;fill-opacity:1;fill-rule:nonzero;stroke:none"
             id="path202" />
        </g>
        <g
           id="g204"
           transform="translate(224.0674,420.8062)">
          <path
             inkscape:connector-curvature="0"
             d="M 0,0 0.437,-1.724 3.833,-0.862 3.396,0.86 0,0 z"
             style="fill:#231f20;fill-opacity:1;fill-rule:nonzero;stroke:none"
             id="path206" />
        </g>
        <g
           id="g208"
           transform="translate(219.0088,419.5239)">
          <path
             inkscape:connector-curvature="0"
             d="M 0,0 0.437,-1.724 3.833,-0.862 3.397,0.86 0,0 z"
             style="fill:#231f20;fill-opacity:1;fill-rule:nonzero;stroke:none"
             id="path210" />
        </g>
        <g
           id="g212"
           transform="translate(213.9507,418.2407)">
          <path
             inkscape:connector-curvature="0"
             d="M 0,0 0.437,-1.723 3.833,-0.861 3.397,0.861 0,0 z"
             style="fill:#231f20;fill-opacity:1;fill-rule:nonzero;stroke:none"
             id="path214" />
        </g>
        <g
           id="g216"
           transform="translate(208.8921,416.9585)">
          <path
             inkscape:connector-curvature="0"
             d="M 0,0 0.437,-1.723 3.833,-0.861 3.396,0.861 0,0 z"
             style="fill:#231f20;fill-opacity:1;fill-rule:nonzero;stroke:none"
             id="path218" />
        </g>
        <g
           id="g220"
           transform="translate(203.8335,415.6763)">
          <path
             inkscape:connector-curvature="0"
             d="M 0,0 0.437,-1.723 3.833,-0.861 3.396,0.861 0,0 z"
             style="fill:#231f20;fill-opacity:1;fill-rule:nonzero;stroke:none"
             id="path222" />
        </g>
        <g
           id="g224"
           transform="translate(198.7744,414.394)">
          <path
             inkscape:connector-curvature="0"
             d="M 0,0 0.437,-1.723 3.833,-0.862 3.396,0.86 0,0 z"
             style="fill:#231f20;fill-opacity:1;fill-rule:nonzero;stroke:none"
             id="path226" />
        </g>
        <g
           id="g228"
           transform="translate(193.7168,413.1118)">
          <path
             inkscape:connector-curvature="0"
             d="M 0,0 0.437,-1.723 3.833,-0.862 3.396,0.861 0,0 z"
             style="fill:#231f20;fill-opacity:1;fill-rule:nonzero;stroke:none"
             id="path230" />
        </g>
        <g
           id="g232"
           transform="translate(218.3574,364.1978)">
          <path
             inkscape:connector-curvature="0"
             d="m 0,0 c 0,-0.645 -0.522,-1.167 -1.167,-1.167 -0.644,0 -1.166,0.522 -1.166,1.167 0,0.644 0.522,1.166 1.166,1.166 C -0.522,1.166 0,0.644 0,0"
             style="fill:#231f20;fill-opacity:1;fill-rule:nonzero;stroke:none"
             id="path234" />
        </g>
        <g
           id="g236"
           transform="translate(192.9072,402.4409)">
          <path
             inkscape:connector-curvature="0"
             d="M 0,0 1.522,0.918 -0.81,4.785 -2.332,3.867 0,0 z"
             style="fill:#231f20;fill-opacity:1;fill-rule:nonzero;stroke:none"
             id="path238" />
        </g>
        <g
           id="g240"
           transform="translate(196.3799,396.6812)">
          <path
             inkscape:connector-curvature="0"
             d="M 0,0 1.522,0.918 -0.81,4.785 -2.332,3.867 0,0 z"
             style="fill:#231f20;fill-opacity:1;fill-rule:nonzero;stroke:none"
             id="path242" />
        </g>
        <g
           id="g244"
           transform="translate(199.853,390.9224)">
          <path
             inkscape:connector-curvature="0"
             d="M 0,0 1.522,0.918 -0.81,4.785 -2.333,3.867 0,0 z"
             style="fill:#231f20;fill-opacity:1;fill-rule:nonzero;stroke:none"
             id="path246" />
        </g>
        <g
           id="g248"
           transform="translate(203.3262,385.1626)">
          <path
             inkscape:connector-curvature="0"
             d="M 0,0 1.522,0.918 -0.81,4.784 -2.332,3.866 0,0 z"
             style="fill:#231f20;fill-opacity:1;fill-rule:nonzero;stroke:none"
             id="path250" />
        </g>
        <g
           id="g252"
           transform="translate(206.7988,379.4028)">
          <path
             inkscape:connector-curvature="0"
             d="M 0,0 1.522,0.918 -0.81,4.785 -2.332,3.867 0,0 z"
             style="fill:#231f20;fill-opacity:1;fill-rule:nonzero;stroke:none"
             id="path254" />
        </g>
        <g
           id="g256"
           transform="translate(210.2725,373.6421)">
          <path
             inkscape:connector-curvature="0"
             d="M 0,0 1.522,0.918 -0.81,4.785 -2.332,3.867 0,0 z"
             style="fill:#231f20;fill-opacity:1;fill-rule:nonzero;stroke:none"
             id="path258" />
        </g>
        <g
           id="g260"
           transform="translate(213.7446,367.8843)">
          <path
             inkscape:connector-curvature="0"
             d="M 0,0 1.522,0.918 -0.809,4.784 -2.332,3.866 0,0 z"
             style="fill:#231f20;fill-opacity:1;fill-rule:nonzero;stroke:none"
             id="path262" />
        </g>
        <g
           id="g264"
           transform="translate(246.2852,397.6929)">
          <path
             inkscape:connector-curvature="0"
             d="M 0,0 1.337,-1.171 4.312,2.227 2.975,3.397 0,0 z"
             style="fill:#231f20;fill-opacity:1;fill-rule:nonzero;stroke:none"
             id="path266" />
        </g>
        <g
           id="g268"
           transform="translate(241.8535,392.6333)">
          <path
             inkscape:connector-curvature="0"
             d="M 0,0 1.337,-1.171 4.312,2.227 2.976,3.397 0,0 z"
             style="fill:#231f20;fill-opacity:1;fill-rule:nonzero;stroke:none"
             id="path270" />
        </g>
        <g
           id="g272"
           transform="translate(237.4229,387.5737)">
          <path
             inkscape:connector-curvature="0"
             d="M 0,0 1.337,-1.171 4.312,2.227 2.976,3.397 0,0 z"
             style="fill:#231f20;fill-opacity:1;fill-rule:nonzero;stroke:none"
             id="path274" />
        </g>
        <g
           id="g276"
           transform="translate(232.9912,382.5142)">
          <path
             inkscape:connector-curvature="0"
             d="M 0,0 1.337,-1.171 4.312,2.226 2.975,3.396 0,0 z"
             style="fill:#231f20;fill-opacity:1;fill-rule:nonzero;stroke:none"
             id="path278" />
        </g>
        <g
           id="g280"
           transform="translate(228.5601,377.4546)">
          <path
             inkscape:connector-curvature="0"
             d="M 0,0 1.337,-1.171 4.312,2.227 2.976,3.397 0,0 z"
             style="fill:#231f20;fill-opacity:1;fill-rule:nonzero;stroke:none"
             id="path282" />
        </g>
        <g
           id="g284"
           transform="translate(224.1284,372.394)">
          <path
             inkscape:connector-curvature="0"
             d="M 0,0 1.337,-1.171 4.312,2.227 2.975,3.397 0,0 z"
             style="fill:#231f20;fill-opacity:1;fill-rule:nonzero;stroke:none"
             id="path286" />
        </g>
        <g
           id="g288"
           transform="translate(219.6982,367.3354)">
          <path
             inkscape:connector-curvature="0"
             d="M 0,0 1.337,-1.171 4.312,2.226 2.975,3.396 0,0 z"
             style="fill:#231f20;fill-opacity:1;fill-rule:nonzero;stroke:none"
             id="path290" />
        </g>
        <g
           id="g292"
           transform="translate(229.1934,436.3511)">
          <path
             inkscape:connector-curvature="0"
             d="M 0,0 1.459,1.016 -0.795,4.256 -2.254,3.241 0,0 z"
             style="fill:#231f20;fill-opacity:1;fill-rule:nonzero;stroke:none"
             id="path294" />
        </g>
        <g
           id="g296"
           transform="translate(232.5508,431.5249)">
          <path
             inkscape:connector-curvature="0"
             d="M 0,0 1.459,1.015 -0.795,4.256 -2.254,3.24 0,0 z"
             style="fill:#231f20;fill-opacity:1;fill-rule:nonzero;stroke:none"
             id="path298" />
        </g>
        <g
           id="g300"
           transform="translate(235.9082,426.6978)">
          <path
             inkscape:connector-curvature="0"
             d="M 0,0 1.459,1.016 -0.795,4.256 -2.254,3.241 0,0 z"
             style="fill:#231f20;fill-opacity:1;fill-rule:nonzero;stroke:none"
             id="path302" />
        </g>
        <g
           id="g304"
           transform="translate(239.2656,421.8706)">
          <path
             inkscape:connector-curvature="0"
             d="M 0,0 1.459,1.016 -0.795,4.256 -2.254,3.241 0,0 z"
             style="fill:#231f20;fill-opacity:1;fill-rule:nonzero;stroke:none"
             id="path306" />
        </g>
        <g
           id="g308"
           transform="translate(242.6235,417.0444)">
          <path
             inkscape:connector-curvature="0"
             d="M 0,0 1.459,1.015 -0.795,4.256 -2.255,3.241 0,0 z"
             style="fill:#231f20;fill-opacity:1;fill-rule:nonzero;stroke:none"
             id="path310" />
        </g>
        <g
           id="g312"
           transform="translate(245.9814,412.2163)">
          <path
             inkscape:connector-curvature="0"
             d="M 0,0 1.459,1.016 -0.795,4.256 -2.254,3.241 0,0 z"
             style="fill:#231f20;fill-opacity:1;fill-rule:nonzero;stroke:none"
             id="path314" />
        </g>
        <g
           id="g316"
           transform="translate(249.3379,407.3911)">
          <path
             inkscape:connector-curvature="0"
             d="M 0,0 1.459,1.015 -0.795,4.255 -2.254,3.24 0,0 z"
             style="fill:#231f20;fill-opacity:1;fill-rule:nonzero;stroke:none"
             id="path318" />
        </g>
      </g>
    </g>
    <text
       style="font-size:15px"
       y="612.66187"
       x="280.4162"
       id="text320">
      <tspan
         style="font-size:35px;font-variant:normal;font-weight:normal;font-stretch:normal;writing-mode:lr-tb;fill:#717577;fill-opacity:1;fill-rule:nonzero;stroke:none;font-family:Myriad Pro;-inkscape-font-specification:MyriadPro-Regular"
         x="280.4162 297.39117 313.87619 331.41119 343.73117 360.21619 367.63617 385.17117 401.65268 419.18768 438.47617 449.95618 457.20117 464.62119 482.15619 498.64117 516.17621 528.49622 545.40118 571.16119 590.58618 608.12122 619.21619"
         y="612.66187"
         sodipodi:role="line"
         id="tspan322">Every event, everywhere</tspan>
    </text>
  </g>
</svg>
